<?xml version="1.0" encoding="UTF-8"?><svg id="a" xmlns="http://www.w3.org/2000/svg" xmlns:xlink="http://www.w3.org/1999/xlink" viewBox="0 0 1440 1440"><defs><style>.f{fill:#cfa76e;}.f,.g,.h,.i{stroke-width:0px;}.g{fill:#fff;filter:url(#b);opacity:.33;}.h{fill:none;}.i{fill:#0a1028;}.j{filter:url(#d);}</style><filter id="b" filterUnits="userSpaceOnUse"><feOffset dx="0" dy="0"/><feGaussianBlur result="c" stdDeviation="5"/><feFlood flood-color="#000" flood-opacity="1"/><feComposite in2="c" operator="in"/><feComposite in="SourceGraphic"/></filter><filter id="d" filterUnits="userSpaceOnUse"><feOffset dx="0" dy="0"/><feGaussianBlur result="e" stdDeviation="5"/><feFlood flood-color="#000" flood-opacity="1"/><feComposite in2="e" operator="in"/><feComposite in="SourceGraphic"/></filter></defs><rect class="i" x="5" y="5" width="1430" height="1430" rx="396.46" ry="396.46"/><rect class="g" x="950.18" y="782.57" width="233.64" height="90.95" rx="26.45" ry="26.45"/><path class="i" d="m1024.99,811.59l-15.04,32.91h3.62l3.93-8.79h18.36l3.93,8.79h3.67l-15.04-32.91h-3.43Zm-6.23,21.3l7.92-17.7,7.92,17.7h-15.84Z"/><path class="i" d="m1076.47,812.93c-2.01-.89-4.4-1.34-7.19-1.34h-12.32v32.91h3.48v-10.39h8.84c2.79,0,5.19-.45,7.19-1.36,2.01-.91,3.55-2.2,4.63-3.88s1.62-3.67,1.62-5.99-.54-4.41-1.62-6.09-2.62-2.96-4.63-3.86Zm.21,15.98c-1.71,1.43-4.21,2.14-7.5,2.14h-8.74v-16.45h8.74c3.29,0,5.79.72,7.5,2.16,1.71,1.44,2.56,3.48,2.56,6.11s-.85,4.62-2.56,6.04Z"/><path class="i" d="m1122.43,816.78c-1.08-1.68-2.62-2.96-4.63-3.86s-4.4-1.34-7.19-1.34h-12.32v32.91h3.48v-10.39h8.84c2.79,0,5.19-.45,7.19-1.36,2.01-.91,3.55-2.2,4.63-3.88s1.62-3.67,1.62-5.99-.54-4.41-1.62-6.09Zm-4.42,12.13c-1.71,1.43-4.21,2.14-7.5,2.14h-8.74v-16.45h8.74c3.29,0,5.79.72,7.5,2.16,1.71,1.44,2.56,3.48,2.56,6.11s-.85,4.62-2.56,6.04Z"/><g class="j"><path class="h" d="m263.37,508.96c-9-8.43-21.35-12.64-37.06-12.64h-64.06l.25,2.45h2.95c4.09,0,7.61,1.35,10.55,4.05s4.66,6.1,5.15,10.19v137.2c-.16,4.26-1.76,7.9-4.79,10.92-3.03,3.03-6.67,4.54-10.92,4.54h-3.19v2.45h53.75v-2.45h-3.19c-4.26,0-7.9-1.51-10.92-4.54-3.03-3.03-4.62-6.67-4.79-10.92v-146.52h28.22c10.31,0,18.32,3.4,24.05,10.19,5.73,6.79,8.75,15.91,9.08,27.37v5.4c0,2.95-.49,6.06-1.47,9.33-3.28,10.47-9.41,18-18.41,22.58-10.15,5.24-21.19,6.55-33.13,3.93v2.45c7.36,3.77,16.11,5.65,26.26,5.65,3.44,0,7.52-.82,12.27-2.45,13.58-4.58,23.07-12.68,28.47-24.3,2.95-6.22,4.42-12.92,4.42-20.13,0-14.73-4.5-26.3-13.5-34.73Zm279.55,143.46c-6.38,5.4-15.63,8.1-27.73,8.1h-35.1v-73.38h41.72c3.27.17,6.01,1.39,8.22,3.68,2.21,2.29,3.31,5.07,3.31,8.34v3.68h2.45v-38.78h-2.45v3.44c0,3.44-1.15,6.3-3.44,8.59-2.29,2.29-5.07,3.52-8.34,3.68h-41.48v-75.84h50.07c3.76.16,6.99,1.64,9.69,4.42,2.7,2.78,4.05,6.14,4.05,10.06v4.42h2.45v-30.92c-2.45.98-6.67,1.96-12.64,2.95-5.97.98-11.5,1.47-16.57,1.47h-71.91l.25,2.45h2.95c4.25,0,7.93,1.35,11.04,4.05,3.11,2.7,4.66,6.01,4.66,9.94v137.44c-.16,4.26-1.76,7.9-4.79,10.92-3.01,3.01-6.62,4.51-10.83,4.54-5.34-.02-10.36-1.16-15.06-3.43-2.13-.98-4.26-2.29-6.38-3.93-2.13-1.63-4.09-3.31-5.89-5.03-1.8-1.72-4.83-4.91-9.08-9.57-4.26-4.66-13.42-17.06-27.49-37.18-2.62-3.6-5.61-7.08-8.96-10.43-3.36-3.35-6.26-5.6-8.71-6.75,11.62,0,21.48-4.79,29.57-14.36,8.1-9.57,12.15-20.94,12.15-34.11s-4.26-23.89-12.76-32.15c-8.51-8.26-20.21-12.39-35.1-12.39h-66.27v2.45h3.19c4.25,0,7.89,1.51,10.92,4.54,3.03,3.03,4.62,6.67,4.79,10.92v136.21c-.16,4.26-1.76,7.85-4.79,10.8-3.03,2.95-6.67,4.42-10.92,4.42h-3.19v2.45h53.75l-.25-2.45h-2.94c-4.42,0-8.14-1.51-11.17-4.54-3.03-3.03-4.54-6.67-4.54-10.92v-146.28h15.71c5.89,0,10.8.08,14.73.25,9.16.49,16.44,4.09,21.84,10.8,5.4,6.71,8.26,15.55,8.59,26.51v5.52c0,2.86-.49,5.93-1.47,9.2-5.24,16.53-18,25.03-38.29,25.52-3.11.17-5.73.25-7.85.25s-3.85-.08-5.15-.25v2.45c5.23,0,10.47,2.78,15.71,8.34,1.8,1.96,3.52,3.97,5.15,6.01,1.63,2.05,7.44,10.27,17.43,24.67,9.98,14.4,16.08,22.87,18.28,25.4,2.21,2.54,4.82,5.15,7.85,7.85,3.03,2.7,7.57,5.32,13.62,7.85,6.05,2.54,12.6,3.8,19.63,3.8h111.91l14.24-39.76h-2.45c-4.26,10.64-9.57,18.65-15.95,24.05Zm164.44-3.19c-12.27,9.98-27.57,14.97-45.9,14.97-20.78-.49-37.51-8.22-50.19-23.19-12.68-14.97-19.02-34.73-19.02-59.27s6.42-44.26,19.27-59.15c12.84-14.89,29.98-22.33,51.42-22.33,15.05,0,28.06,3.8,39.02,11.41,10.96,7.61,18.24,18.45,21.84,32.52h2.21l-4.91-34.61c-16.85-11.12-36.24-16.69-58.17-16.69-26.84,0-48.39,8.18-64.67,24.54-16.28,16.36-24.42,37.92-24.42,64.67s8.14,48.31,24.42,64.67c16.28,16.36,37.34,24.62,63.2,24.79,31.09,0,54.08-12.19,68.97-36.57l2.95-38.53h-1.96c-2.79,24.38-10.8,41.97-24.05,52.77Zm44.91-150.45h3.19c4.25,0,7.89,1.47,10.92,4.42,3.03,2.94,4.62,6.55,4.79,10.8v136.21c-.17,4.26-1.76,7.9-4.79,10.92-3.03,3.03-6.67,4.54-10.92,4.54h-3.19v2.45h53.75v-2.45h-3.19c-4.26,0-7.94-1.51-11.04-4.54-3.11-3.03-4.66-6.67-4.66-10.92v-136.21c.16-4.25,1.76-7.85,4.79-10.8,3.03-2.95,6.67-4.42,10.92-4.42h3.19v-2.45h-53.75v2.45Zm150.45,96.95l-48.35-44.67c-6.55-6.05-9.82-13.25-9.82-21.6s2.82-15.3,8.47-20.86c5.64-5.56,12.64-8.34,20.98-8.34s15.17,2.29,20.49,6.87c5.32,4.58,7.98,10.72,7.98,18.41h2.21v-30.19h-9.57c-7.85-1.63-14.89-2.45-21.11-2.45-13.25,0-23.77,4.13-31.54,12.39-7.77,8.26-11.66,18.2-11.66,29.82s4.42,21.52,13.25,29.7l47.12,43.69c6.38,5.89,9.57,13.54,9.57,22.95s-3.31,17.22-9.94,23.44c-6.63,6.22-15.09,9.33-25.4,9.33s-18-3.31-24.05-9.94c-6.06-6.63-9.08-14.93-9.08-24.91,0-1.8.08-3.6.25-5.4h-2.21c-2.46,7.36-3.68,14.32-3.68,20.86s.25,10.96.74,13.25c4.42,4.58,10.68,7.98,18.78,10.19,8.1,2.21,15.75,3.31,22.95,3.31,13.91,0,25.03-4.21,33.38-12.64,8.34-8.42,12.52-19.18,12.52-32.27s-4.09-23.4-12.27-30.92Zm93.75-125.91c2.29,0,6.83,1.8,13.62,5.4,6.79,3.6,11.82,5.4,15.09,5.4s6.05-.74,8.34-2.21c4.74-3.27,7.61-9,8.59-17.18h-2.45c-2.29,5.56-6.87,8.34-13.74,8.34-2.62,0-7.2-1.76-13.74-5.28-6.55-3.52-11.82-5.28-15.83-5.28s-7.41,1.88-10.19,5.64c-2.78,3.77-4.58,8.84-5.4,15.22h2.46c2.62-6.71,7.03-10.06,13.25-10.06Zm88.11,191.93c-3.93-2.62-7.04-6.46-9.33-11.54l-65.78-157.32h-2.21c0,3.6-3.03,12.03-9.08,25.28l-55.47,132.04c-2.45,5.07-5.64,8.92-9.57,11.54-3.93,2.62-7.94,3.93-12.03,3.93h-2.21v2.45h49.33v-2.45h-2.21c-3.44,0-6.01-1.1-7.73-3.31-1.72-2.21-2.58-4.25-2.58-6.14s.33-3.8.98-5.77l16.44-41.97h66.27l15.71,41.72c.65,1.96.98,3.93.98,5.89s-.86,4.05-2.58,6.26c-1.72,2.21-4.29,3.31-7.73,3.31h-2.21v2.45h55.22v-2.45h-1.96c-4.26,0-8.34-1.31-12.27-3.93Zm-108.48-60.62l30.92-78.78,29.45,78.78h-60.38Zm275.38-83.57c-17.51-16.44-40.21-24.67-68.11-24.67s-50.6,8.22-68.11,24.67c-17.51,16.44-26.26,38-26.26,64.67s8.75,48.23,26.26,64.67c17.51,16.44,40.21,24.67,68.11,24.67s50.6-8.22,68.11-24.67c17.51-16.44,26.26-38,26.26-64.67s-8.75-48.23-26.26-64.67Zm-13.62,124.07c-13.83,15.06-32.03,22.58-54.61,22.58s-40.78-7.52-54.61-22.58c-13.83-15.05-20.74-34.85-20.74-59.39s6.91-44.34,20.74-59.39c13.83-15.05,32.03-22.58,54.61-22.58s40.78,7.53,54.61,22.58c13.82,15.06,20.74,34.85,20.74,59.39s-6.92,44.34-20.74,59.39Z"/></g><path class="f" d="m709.32,906.93c-3.44-2.78-5.48-6.54-6.14-11.29l-18.9-157.32h-2.21l-67,147.99-68.48-147.99h-2.45l-18.41,157.32c-.66,4.75-2.66,8.51-6.01,11.29-3.36,2.78-7.32,4.17-11.9,4.17h-3.93v2.46h47.61v-2.21h-3.68c-2.78,0-5.15-1.11-7.12-3.31-1.96-2.21-2.78-4.62-2.45-7.24l10.55-120.02,62.83,136.21h2.45c.98-6.71,3.76-15.05,8.34-25.03l51.54-114.62,11.04,123.45c.33,2.79-.49,5.24-2.45,7.36-1.96,2.13-4.34,3.19-7.12,3.19h-3.68v2.21h53.26v-2.46h-3.93c-4.42,0-8.34-1.39-11.78-4.17Zm123.7-9.08c-6.38,5.4-15.63,8.1-27.73,8.1h-35.1v-73.38h41.72c3.27.16,6.01,1.39,8.22,3.68,2.21,2.29,3.31,5.07,3.31,8.35v3.68h2.45v-38.78h-2.45v3.44c0,3.44-1.15,6.3-3.44,8.59-2.29,2.29-5.07,3.52-8.34,3.68h-41.48v-75.84h50.07c3.76.17,7,1.64,9.69,4.42,2.7,2.79,4.05,6.14,4.05,10.06v4.42h2.45v-30.92c-2.45.98-6.67,1.96-12.64,2.95-5.97.98-11.5,1.47-16.57,1.47h-71.91l.25,2.46h2.95c4.25,0,7.93,1.35,11.04,4.05,3.11,2.7,4.66,6.01,4.66,9.94v137.44c-.17,4.26-1.76,7.9-4.79,10.92-3.03,3.03-6.67,4.54-10.92,4.54h-3.19v2.46h101.85l14.24-39.76h-2.45c-4.26,10.64-9.57,18.65-15.95,24.05Zm73.02-149.22c3.03-2.95,6.67-4.42,10.92-4.42h3.19v-2.46h-53.75v2.46h3.19c4.25,0,7.89,1.47,10.92,4.42,3.03,2.95,4.62,6.55,4.79,10.8v136.21c-.17,4.26-1.76,7.9-4.79,10.92-3.03,3.03-6.67,4.54-10.92,4.54h-3.19v2.46h53.75v-2.46h-3.19c-4.26,0-7.94-1.51-11.04-4.54-3.11-3.03-4.66-6.66-4.66-10.92v-136.21c.16-4.25,1.76-7.86,4.79-10.8Z"/></svg>