<?xml version="1.0" encoding="UTF-8"?><svg id="b" xmlns="http://www.w3.org/2000/svg" xmlns:xlink="http://www.w3.org/1999/xlink" viewBox="0 0 296.25 296.25"><defs><style>.f{fill:url(#e);}.f,.g,.h,.i,.j{stroke-width:0px;}.g{fill:#cfa76e;}.h{opacity:.33;}.h,.i{fill:#fff;}.j{fill:url(#d);}</style><linearGradient id="d" x1="691.51" y1="-2085.64" x2="904.74" y2="-1781.11" gradientTransform="translate(2081.5 946.25) rotate(-90)" gradientUnits="userSpaceOnUse"><stop offset="0" stop-color="#484854"/><stop offset=".3" stop-color="#212538"/><stop offset=".51" stop-color="#0a1028"/><stop offset="1" stop-color="#69697a"/></linearGradient><linearGradient id="e" x1="43.29" y1="-1.59" x2="252.96" y2="297.85" gradientUnits="userSpaceOnUse"><stop offset="0" stop-color="#484854"/><stop offset=".07" stop-color="#3e3f4d"/><stop offset=".26" stop-color="#272a3c"/><stop offset=".47" stop-color="#161b31"/><stop offset=".7" stop-color="#0d122a"/><stop offset="1" stop-color="#0a1028"/></linearGradient></defs><g id="c"><rect class="j" width="296.25" height="296.25" rx="52" ry="52" transform="translate(0 296.25) rotate(-90)"/><rect class="f" x="2.79" y="2.79" width="290.66" height="290.66" rx="50" ry="50"/><rect class="h" x="199.12" y="171.87" width="51.77" height="20.15" rx="5.86" ry="5.86"/><path class="i" d="m215.7,178.3l-3.33,7.29h.8l.87-1.95h4.07l.87,1.95h.81l-3.33-7.29h-.76Zm-1.38,4.72l1.75-3.92,1.75,3.92h-3.51Z"/><path class="i" d="m227.11,178.6c-.44-.2-.98-.3-1.59-.3h-2.73v7.29h.77v-2.3h1.96c.62,0,1.15-.1,1.59-.3.44-.2.79-.49,1.03-.86s.36-.81.36-1.33-.12-.98-.36-1.35-.58-.66-1.03-.85Zm.05,3.54c-.38.32-.93.47-1.66.47h-1.94v-3.65h1.94c.73,0,1.28.16,1.66.48.38.32.57.77.57,1.35s-.19,1.02-.57,1.34Z"/><path class="i" d="m237.29,179.45c-.24-.37-.58-.66-1.03-.85s-.98-.3-1.59-.3h-2.73v7.29h.77v-2.3h1.96c.62,0,1.15-.1,1.59-.3.44-.2.79-.49,1.03-.86s.36-.81.36-1.33-.12-.98-.36-1.35Zm-.98,2.69c-.38.32-.93.47-1.66.47h-1.94v-3.65h1.94c.73,0,1.28.16,1.66.48.38.32.57.77.57,1.35s-.19,1.02-.57,1.34Z"/><path class="i" d="m49.95,118.95c0,1.6-.33,3.08-.98,4.46-1.2,2.57-3.3,4.37-6.31,5.38-1.05.36-1.96.54-2.72.54-2.25,0-4.19-.42-5.82-1.25v-.54c2.65.58,5.09.29,7.34-.87,1.99-1.01,3.35-2.68,4.08-5,.22-.72.33-1.41.33-2.07v-1.2c-.07-2.54-.74-4.56-2.01-6.06-1.27-1.5-3.05-2.26-5.33-2.26h-6.25v32.46c.04.94.39,1.75,1.06,2.42.67.67,1.48,1.01,2.42,1.01h.71v.54h-11.91v-.54h.71c.94,0,1.75-.33,2.42-1.01.67-.67,1.02-1.48,1.06-2.42v-30.4c-.11-.91-.49-1.66-1.14-2.26s-1.43-.9-2.34-.9h-.65l-.05-.54h14.19c3.48,0,6.22.93,8.21,2.8,1.99,1.87,2.99,4.43,2.99,7.69Z"/><path class="i" d="m65.07,110.14h-3.48v32.41c0,.94.33,1.75,1.01,2.42.67.67,1.5,1.01,2.47,1.01h.65l.05.54h-11.91v-.54h.71c.94,0,1.75-.33,2.42-.98.67-.65,1.02-1.45,1.06-2.39v-30.18c-.04-.94-.39-1.75-1.06-2.42-.67-.67-1.48-1.01-2.42-1.01h-.71v-.54h14.68c3.3,0,5.89.92,7.78,2.75,1.88,1.83,2.83,4.21,2.83,7.12s-.9,5.44-2.69,7.56c-1.79,2.12-3.98,3.18-6.55,3.18.54.25,1.19.75,1.93,1.5.74.74,1.4,1.51,1.98,2.31,3.12,4.46,5.15,7.21,6.09,8.24.94,1.03,1.61,1.74,2.01,2.12.4.38.83.75,1.31,1.11.47.36.94.65,1.41.87,1.05.51,2.18.76,3.37.76v.54h-2.99c-1.56,0-3.01-.28-4.35-.84-1.34-.56-2.35-1.14-3.02-1.74-.67-.6-1.25-1.18-1.74-1.74-.49-.56-1.84-2.44-4.05-5.63-2.21-3.19-3.5-5.01-3.86-5.46-.36-.45-.74-.9-1.14-1.33-1.16-1.23-2.32-1.85-3.48-1.85v-.54c.29.04.67.05,1.14.05s1.05-.02,1.74-.05c4.49-.11,7.32-1.99,8.48-5.66.22-.72.33-1.4.33-2.04v-1.22c-.07-2.43-.71-4.39-1.9-5.87-1.2-1.49-2.81-2.28-4.84-2.39-.87-.04-1.96-.05-3.26-.05Z"/><path class="i" d="m87.96,145.97c.94,0,1.75-.33,2.42-1.01.67-.67,1.02-1.48,1.06-2.42v-30.45c0-.87-.34-1.6-1.03-2.2-.69-.6-1.5-.9-2.45-.9h-.65l-.05-.54h15.93c1.12,0,2.35-.11,3.67-.33,1.32-.22,2.26-.44,2.8-.65v6.85h-.54v-.98c0-.87-.3-1.61-.9-2.23-.6-.62-1.31-.94-2.15-.98h-11.09v16.8h9.19c.72-.04,1.34-.31,1.85-.82.51-.51.76-1.14.76-1.9v-.76h.54v8.59h-.54v-.82c0-.72-.24-1.34-.73-1.85-.49-.51-1.1-.78-1.82-.82h-9.24v16.26h7.78c2.68,0,4.73-.6,6.14-1.79,1.41-1.2,2.59-2.97,3.53-5.33h.54l-3.15,8.81h-22.57v-.54h.71Z"/><path class="i" d="m121.16,141.79c-3.61-3.62-5.41-8.4-5.41-14.33s1.8-10.7,5.41-14.33c3.61-3.62,8.38-5.44,14.33-5.44,4.86,0,9.15,1.23,12.89,3.7l1.09,7.67h-.49c-.8-3.12-2.41-5.52-4.84-7.2-2.43-1.69-5.31-2.53-8.65-2.53-4.75,0-8.55,1.65-11.39,4.95-2.85,3.3-4.27,7.67-4.27,13.1s1.4,9.82,4.21,13.13c2.81,3.32,6.52,5.03,11.12,5.14,4.06,0,7.45-1.11,10.17-3.32,2.94-2.39,4.71-6.29,5.33-11.69h.43l-.65,8.54c-3.3,5.4-8.39,8.1-15.28,8.1-5.73-.04-10.4-1.87-14-5.49Z"/><path class="i" d="m155.98,145.97c.94,0,1.75-.33,2.42-1.01.67-.67,1.02-1.48,1.06-2.42v-30.18c-.04-.94-.39-1.74-1.06-2.39-.67-.65-1.48-.98-2.42-.98h-.71v-.54h11.91v.54h-.71c-.94,0-1.75.33-2.42.98-.67.65-1.02,1.45-1.06,2.39v30.18c0,.94.34,1.75,1.03,2.42.69.67,1.5,1.01,2.45,1.01h.71v.54h-11.91v-.54h.71Z"/><path class="i" d="m171.92,144.29c-.11-.51-.16-1.49-.16-2.94s.27-2.99.82-4.62h.49c-.04.4-.05.8-.05,1.2,0,2.21.67,4.05,2.01,5.52,1.34,1.47,3.12,2.2,5.33,2.2s4.16-.69,5.63-2.07c1.47-1.38,2.2-3.11,2.2-5.19s-.71-3.78-2.12-5.08l-10.44-9.68c-1.96-1.81-2.94-4.01-2.94-6.58s.86-4.78,2.58-6.61c1.72-1.83,4.05-2.75,6.99-2.75,1.38,0,2.94.18,4.68.54h2.12v6.69h-.49c0-1.7-.59-3.06-1.77-4.08-1.18-1.01-2.69-1.52-4.54-1.52s-3.4.62-4.65,1.85c-1.25,1.23-1.88,2.77-1.88,4.62s.72,3.44,2.18,4.79l10.71,9.9c1.81,1.67,2.72,3.95,2.72,6.85s-.92,5.28-2.77,7.15c-1.85,1.87-4.31,2.8-7.4,2.8-1.6,0-3.29-.24-5.08-.73-1.79-.49-3.18-1.24-4.16-2.26Z"/><path class="i" d="m231.62,145.97h.43v.54h-12.23v-.54h.49c.76,0,1.33-.24,1.71-.73.38-.49.57-.95.57-1.39s-.07-.87-.22-1.31l-3.48-9.24h-14.68l-3.64,9.3c-.15.44-.22.86-.22,1.28s.19.87.57,1.36c.38.49.95.73,1.71.73h.49v.54h-10.93v-.54h.49c.91,0,1.79-.29,2.66-.87.87-.58,1.58-1.43,2.12-2.56l12.29-29.26c1.34-2.94,2.01-4.8,2.01-5.6h.49l14.57,34.86c.51,1.12,1.2,1.98,2.07,2.56.87.58,1.78.87,2.72.87Zm-26.75-14.3h13.38l-6.53-17.46-6.85,17.46Zm11.04-29.15c1.52,0,2.54-.62,3.05-1.85h.54c-.22,1.81-.85,3.08-1.9,3.81-.51.33-1.12.49-1.85.49s-1.84-.4-3.34-1.2c-1.5-.8-2.51-1.2-3.02-1.2-1.38,0-2.36.74-2.94,2.23h-.54c.18-1.41.58-2.54,1.2-3.37.62-.83,1.37-1.25,2.26-1.25s2.06.39,3.51,1.17c1.45.78,2.46,1.17,3.05,1.17Z"/><path class="i" d="m235.7,113.16c3.88-3.64,8.91-5.46,15.09-5.46s11.21,1.82,15.09,5.46c3.88,3.64,5.82,8.42,5.82,14.33s-1.94,10.69-5.82,14.33c-3.88,3.64-8.91,5.47-15.09,5.47s-11.21-1.82-15.09-5.47c-3.88-3.64-5.82-8.42-5.82-14.33s1.94-10.69,5.82-14.33Zm2.96,27.49c3.06,3.34,7.1,5,12.1,5s9.04-1.67,12.1-5c3.06-3.33,4.59-7.72,4.59-13.16s-1.53-9.82-4.59-13.16c-3.06-3.33-7.1-5-12.1-5s-9.04,1.67-12.1,5c-3.06,3.34-4.59,7.72-4.59,13.16s1.53,9.82,4.59,13.16Z"/><path class="g" d="m148.37,200.35h.87v.54h-11.8v-.49h.82c.62,0,1.14-.24,1.58-.71.44-.47.62-1.01.54-1.63l-2.45-27.35-11.42,25.39c-1.02,2.21-1.63,4.06-1.85,5.55h-.54l-13.92-30.18-2.34,26.59c-.07.58.11,1.11.54,1.6.44.49.96.73,1.58.73h.82v.49h-10.55v-.54h.87c1.01,0,1.89-.31,2.64-.92.74-.62,1.19-1.45,1.33-2.5l4.08-34.86h.54l15.17,32.79,14.85-32.79h.49l4.19,34.86c.14,1.05.6,1.89,1.36,2.5.76.62,1.63.92,2.61.92Z"/><path class="g" d="m152.23,200.35c.94,0,1.75-.33,2.42-1.01.67-.67,1.02-1.48,1.06-2.42v-30.45c0-.87-.34-1.6-1.03-2.2-.69-.6-1.5-.9-2.45-.9h-.65l-.05-.54h15.93c1.12,0,2.35-.11,3.67-.33,1.32-.22,2.26-.43,2.8-.65v6.85h-.54v-.98c0-.87-.3-1.61-.9-2.23-.6-.62-1.31-.94-2.15-.98h-11.09v16.8h9.19c.72-.04,1.34-.31,1.85-.82.51-.51.76-1.14.76-1.9v-.76h.54v8.59h-.54v-.82c0-.72-.24-1.34-.73-1.85-.49-.51-1.1-.78-1.82-.82h-9.24v16.26h7.78c2.68,0,4.73-.6,6.14-1.79,1.41-1.2,2.59-2.97,3.53-5.33h.54l-3.15,8.81h-22.57v-.54h.71Z"/><path class="g" d="m181.27,200.35c.94,0,1.75-.33,2.42-1.01.67-.67,1.02-1.48,1.06-2.42v-30.18c-.04-.94-.39-1.74-1.06-2.39-.67-.65-1.48-.98-2.42-.98h-.71v-.54h11.91v.54h-.71c-.94,0-1.75.33-2.42.98-.67.65-1.02,1.45-1.06,2.39v30.18c0,.94.34,1.75,1.03,2.42.69.67,1.5,1.01,2.45,1.01h.71v.54h-11.91v-.54h.71Z"/></g></svg>